<svg xmlns="http://www.w3.org/2000/svg" width="217.65" height="241.69" viewBox="0 0 217.65 241.69"><defs><style>.a{fill:#0066ac;}.b{fill:#008774;}.c{fill:#00ae9e;}.d{fill:#009fdf;}</style></defs><title>Asset 1</title><polygon class="a" points="153.4 92.37 23.54 160.25 23.54 193.26 153.4 125.39 153.4 92.37"/><polygon class="b" points="40.19 179.6 130.54 26.8 104.76 12.16 14.41 164.96 40.19 179.6"/><path class="a" d="M108.83,208.25,27.45,165.67V68.06L0,53.69V174c0,5.89,4.27,12.95,9.5,15.69l99.33,52Z"/><path class="c" d="M190.2,68.06v74.85L112.89,12.16,87.11,26.8l87.07,147.25-65.35,34.2v33.44l99.33-52c5.22-2.74,9.49-9.8,9.49-15.69V53.69Z"/><path class="d" d="M217.65,53.69l-98-51.35c-6-3.12-15.74-3.12-21.71,0L0,53.69,27.45,68.06,108.83,25.4,190.2,68.06Z"/></svg>